HIERARCHY
ROOT hips
{
  OFFSET 0 10.680822821525009 1.3929502295107734
  CHANNELS 6 Xposition Yposition Zposition Yrotation Xrotation Zrotation
  JOINT spine
  {
    OFFSET -7.042017322922631e-31 0.6058489940359625 0
    CHANNELS 3 Yrotation Xrotation Zrotation
    JOINT chest
    {
      OFFSET 0 1.2699794144455032 0
      CHANNELS 3 Yrotation Xrotation Zrotation
      JOINT upperChest
      {
        OFFSET 0 1.217799211677689 0
        CHANNELS 3 Yrotation Xrotation Zrotation
        JOINT neck
        {
          OFFSET 0 1.5248826104153006 0
          CHANNELS 3 Yrotation Xrotation Zrotation
          JOINT head
          {
            OFFSET 0 0.8197772727844447 0
            CHANNELS 3 Yrotation Xrotation Zrotation
            JOINT leftEye
            {
              OFFSET 0.2793952361220866 0.6769952096623495 0.1830357412467788
              CHANNELS 3 Yrotation Xrotation Zrotation
              End Site
              {
                OFFSET 0.2793952361220866 0.6769952096623495 0.1830357412467788
              }
            }
            JOINT rightEye
            {
              OFFSET -0.27939522230689573 0.676995205357064 0.18303631459760622
              CHANNELS 3 Yrotation Xrotation Zrotation
              End Site
              {
                OFFSET -0.27939522230689573 0.676995205357064 0.18303631459760622
              }
            }
          }
        }
        JOINT leftShoulder
        {
          OFFSET 0.41486978509200423 1.1670505408695453 0
          CHANNELS 3 Yrotation Xrotation Zrotation
          JOINT leftUpperArm
          {
            OFFSET 0.9737926108153417 0 0
            CHANNELS 3 Yrotation Xrotation Zrotation
            JOINT leftLowerArm
            {
              OFFSET 2.5269332222665284 0 0
              CHANNELS 3 Yrotation Xrotation Zrotation
              JOINT leftHand
              {
                OFFSET 2.4263782738425914 0 0
                CHANNELS 3 Yrotation Xrotation Zrotation
                JOINT leftIndexProximal
                {
                  OFFSET 0.724320348022514 0.08170607082582437 0.20360061616140124
                  CHANNELS 3 Yrotation Xrotation Zrotation
                  JOINT leftIndexIntermediate
                  {
                    OFFSET 0.36548960630744587 -0.010566596513783999 -0.01414783573280308
                    CHANNELS 3 Yrotation Xrotation Zrotation
                    JOINT leftIndexDistal
                    {
                      OFFSET 0.22502819650693362 -0.007863819831430696 -0.007567681939621526
                      CHANNELS 3 Yrotation Xrotation Zrotation
                      End Site
                      {
                        OFFSET 0.22502819650693362 -0.007863819831430696 -0.007567681939621526
                      }
                    }
                  }
                }
                JOINT leftLittleProximal
                {
                  OFFSET 0.6720322998298205 0.08170601055037707 -0.3230036039466837
                  CHANNELS 3 Yrotation Xrotation Zrotation
                  JOINT leftLittleIntermediate
                  {
                    OFFSET 0.34583592281688713 5.476543019078406e-8 1.3869203337180114e-7
                    CHANNELS 3 Yrotation Xrotation Zrotation
                    JOINT leftLittleDistal
                    {
                      OFFSET 0.19925728062053938 0.003098047439490381 0.0038303983709246925
                      CHANNELS 3 Yrotation Xrotation Zrotation
                      End Site
                      {
                        OFFSET 0.19925728062053938 0.003098047439490381 0.0038303983709246925
                      }
                    }
                  }
                }
                JOINT leftMiddleProximal
                {
                  OFFSET 0.7300436596551069 0.0817073395107144 0.022661722987926763
                  CHANNELS 3 Yrotation Xrotation Zrotation
                  JOINT leftMiddleIntermediate
                  {
                    OFFSET 0.40758254347686607 -0.0000012383587111308714 2.408460318820138e-7
                    CHANNELS 3 Yrotation Xrotation Zrotation
                    JOINT leftMiddleDistal
                    {
                      OFFSET 0.2514490105498507 0.0000013869132886590307 9.738618134136345e-8
                      CHANNELS 3 Yrotation Xrotation Zrotation
                      End Site
                      {
                        OFFSET 0.2514490105498507 0.0000013869132886590307 9.738618134136345e-8
                      }
                    }
                  }
                }
                JOINT leftRingProximal
                {
                  OFFSET 0.7217261161191838 0.08170601902187746 -0.15043395722184966
                  CHANNELS 3 Yrotation Xrotation Zrotation
                  JOINT leftRingIntermediate
                  {
                    OFFSET 0.37808807487521556 0.0000013754022405443322 2.2046919317952884e-7
                    CHANNELS 3 Yrotation Xrotation Zrotation
                    JOINT leftRingDistal
                    {
                      OFFSET 0.21812105442344254 -0.002713483731960231 -0.004991354517454624
                      CHANNELS 3 Yrotation Xrotation Zrotation
                      End Site
                      {
                        OFFSET 0.21812105442344254 -0.002713483731960231 -0.004991354517454624
                      }
                    }
                  }
                }
                JOINT leftThumbProximal
                {
                  OFFSET 0.10793587079521427 -0.1652791240518252 -0.07775251827190094
                  CHANNELS 3 Yrotation Xrotation Zrotation
                  JOINT leftThumbIntermediate
                  {
                    OFFSET 0.40355819082296684 -0.017484006740276614 0.3177776014416309
                    CHANNELS 3 Yrotation Xrotation Zrotation
                    JOINT leftThumbDistal
                    {
                      OFFSET 0.2318764658022603 -0.018510186824293617 0.21396001800186287
                      CHANNELS 3 Yrotation Xrotation Zrotation
                      End Site
                      {
                        OFFSET 0.2318764658022603 -0.018510186824293617 0.21396001800186287
                      }
                    }
                  }
                }
              }
            }
          }
        }
        JOINT rightShoulder
        {
          OFFSET -0.4148697850920044 1.1670505408695453 0
          CHANNELS 3 Yrotation Xrotation Zrotation
          JOINT rightUpperArm
          {
            OFFSET -0.9737926108153414 0 0
            CHANNELS 3 Yrotation Xrotation Zrotation
            JOINT rightLowerArm
            {
              OFFSET -2.5269332222665293 0 0
              CHANNELS 3 Yrotation Xrotation Zrotation
              JOINT rightHand
              {
                OFFSET -2.42637827384259 0 0
                CHANNELS 3 Yrotation Xrotation Zrotation
                JOINT rightIndexProximal
                {
                  OFFSET -0.724320348022514 0.08170607082582437 0.20360061616140124
                  CHANNELS 3 Yrotation Xrotation Zrotation
                  JOINT rightIndexIntermediate
                  {
                    OFFSET -0.36548960630744587 -0.010566596513783999 -0.01414783573280308
                    CHANNELS 3 Yrotation Xrotation Zrotation
                    JOINT rightIndexDistal
                    {
                      OFFSET -0.22502819650693362 -0.007863819831430696 -0.007567681939621526
                      CHANNELS 3 Yrotation Xrotation Zrotation
                      End Site
                      {
                        OFFSET -0.22502819650693362 -0.007863819831430696 -0.007567681939621526
                      }
                    }
                  }
                }
                JOINT rightLittleProximal
                {
                  OFFSET -0.6720322998298205 0.08170601055037707 -0.3230036039466837
                  CHANNELS 3 Yrotation Xrotation Zrotation
                  JOINT rightLittleIntermediate
                  {
                    OFFSET -0.34583592281688713 5.476543019078406e-8 1.3869203337180114e-7
                    CHANNELS 3 Yrotation Xrotation Zrotation
                    JOINT rightLittleDistal
                    {
                      OFFSET -0.19925728062053938 0.003098047439490381 0.0038303983709246925
                      CHANNELS 3 Yrotation Xrotation Zrotation
                      End Site
                      {
                        OFFSET -0.19925728062053938 0.003098047439490381 0.0038303983709246925
                      }
                    }
                  }
                }
                JOINT rightMiddleProximal
                {
                  OFFSET -0.7300436596551069 0.0817073395107144 0.022661722987926763
                  CHANNELS 3 Yrotation Xrotation Zrotation
                  JOINT rightMiddleIntermediate
                  {
                    OFFSET -0.40758254347686607 -0.0000012383587111308714 2.408460318820138e-7
                    CHANNELS 3 Yrotation Xrotation Zrotation
                    JOINT rightMiddleDistal
                    {
                      OFFSET -0.2514490105498507 0.0000013869132886590307 9.738618134136345e-8
                      CHANNELS 3 Yrotation Xrotation Zrotation
                      End Site
                      {
                        OFFSET -0.2514490105498507 0.0000013869132886590307 9.738618134136345e-8
                      }
                    }
                  }
                }
                JOINT rightRingProximal
                {
                  OFFSET -0.7217261161191838 0.08170601902187746 -0.15043395722184966
                  CHANNELS 3 Yrotation Xrotation Zrotation
                  JOINT rightRingIntermediate
                  {
                    OFFSET -0.37808807487521556 0.0000013754022405443322 2.2046919317952884e-7
                    CHANNELS 3 Yrotation Xrotation Zrotation
                    JOINT rightRingDistal
                    {
                      OFFSET -0.21812105442344254 -0.002713483731960231 -0.004991354517454624
                      CHANNELS 3 Yrotation Xrotation Zrotation
                      End Site
                      {
                        OFFSET -0.21812105442344254 -0.002713483731960231 -0.004991354517454624
                      }
                    }
                  }
                }
                JOINT rightThumbProximal
                {
                  OFFSET -0.10793587079521427 -0.1652791240518252 -0.07775251827190094
                  CHANNELS 3 Yrotation Xrotation Zrotation
                  JOINT rightThumbIntermediate
                  {
                    OFFSET -0.40355819082296684 -0.017484006740276614 0.3177776014416309
                    CHANNELS 3 Yrotation Xrotation Zrotation
                    JOINT rightThumbDistal
                    {
                      OFFSET -0.2318764658022603 -0.018510186824293617 0.21396001800186287
                      CHANNELS 3 Yrotation Xrotation Zrotation
                      End Site
                      {
                        OFFSET -0.2318764658022603 -0.018510186824293617 0.21396001800186287
                      }
                    }
                  }
                }
              }
            }
          }
        }
      }
    }
  }
  JOINT leftUpperLeg
  {
    OFFSET 0.8486251390888677 -0.4421577294694363 0
    CHANNELS 3 Yrotation Xrotation Zrotation
    JOINT leftLowerLeg
    {
      OFFSET 0 -4.10147812638609 0
      CHANNELS 3 Yrotation Xrotation Zrotation
      JOINT leftFoot
      {
        OFFSET -0.0002543926476658853 -4.77292286812444 0.007402811231737388
        CHANNELS 3 Yrotation Xrotation Zrotation
        JOINT leftToes
        {
          OFFSET 0 -0.7027875951174846 1.2062924140498823
          CHANNELS 3 Yrotation Xrotation Zrotation
          End Site
          {
            OFFSET 0 -0.7027875951174846 1.2062924140498823
          }
        }
      }
    }
  }
  JOINT rightUpperLeg
  {
    OFFSET -0.8486251390888677 -0.4421577294694363 0
    CHANNELS 3 Yrotation Xrotation Zrotation
    JOINT rightLowerLeg
    {
      OFFSET 0 -4.10147812638609 0
      CHANNELS 3 Yrotation Xrotation Zrotation
      JOINT rightFoot
      {
        OFFSET 0.0002543926476658853 -4.77292286812444 0.007402811231737388
        CHANNELS 3 Yrotation Xrotation Zrotation
        JOINT rightToes
        {
          OFFSET 0 -0.7027875951174846 1.2062924140498823
          CHANNELS 3 Yrotation Xrotation Zrotation
          End Site
          {
            OFFSET 0 -0.7027875951174846 1.2062924140498823
          }
        }
      }
    }
  }
}
MOTION
Frames: 4
Frame Time: 0.03333333333333333
0.10460566729307175 -0.2227472981485441 0.05692198500037193 -9.019376781309779 -5.196889717491284 -6.4108553215930515 0.31654151339992626 2.9178557909272085 -0.20205627092695594 0.06926480522961714 1.7759373877881115 -0.35058648557086275 0 0 0 -4.729948129338236 1.9768589785591801 -4.656152128752024 -19.648705548958834 -3.124062634591497 -1.5979589592917274 0 0 0 0 0 0 -10.572846944633039 6.093077202032382 -8.713659224041972 -32.043468617721736 15.428771162604727 -58.92487035971906 -2.5135947581857625 -0.33011780905127436 0.039732204410863343 -34.0276760550811 5.20999022036534 51.838158174081926 -2.1986983809776124 0.6842608278566108 9.754588847812663 0.9852302271382162 0.021964746653003568 -2.2166510333670626 -0.9183888914758116 0.06032236092342021 8.04675999118134 26.976250982192333 5.095377075423788 -5.237550186200458 0.2816199411023182 -0.024156240373274407 -5.240369016704106 -0.3380181126279664 0.04730706617025632 13.666907307568126 9.338189082280369 0.1581365157149382 10.281889807448792 0.8146922750690357 0.03430119538548695 -0.009968208374501498 -0.24031590074578654 0.014174396910398247 5.9480356286444085 18.28967856677365 1.5678782973941359 -0.5653846446471142 0.33884973301158894 0.0019055873438434943 -0.004310832365105654 0.08875898570451778 0.054286511728124646 -1.133825690976467 -19.49762683094175 6.296114539780695 6.705969559944615 7.912210789147681 -8.775209377681783 -6.281248555924316 -3.755618739678133 -0.7832516321384362 -2.8545234598481026 -2.5419991624979903 11.96386358215051 -1.2110374297531648 -37.983326393793966 -6.492277917514767 65.50675166231561 7.873874494269387 -1.0262240902342514 -0.17248752184748084 23.6516919135919 27.18169320279955 -30.687762968275624 2.1986913420286918 0.6842506885715189 -9.754651171074654 -0.9851991169901916 0.021964661609138025 2.216580223172836 1.6071374981011115 0.03686286366397852 -4.37853654019948 -26.976250982192333 5.095376218262844 5.237505913737192 -0.2816044399605448 -0.024154681235715444 5.240287198278064 3.1959442773752635 0.5119363200885482 -12.059345496603173 -9.338195533658393 0.15812350895750993 -10.281941430572493 -0.81475256674725 0.03429489213360989 0.010075012638682804 0.0828767127422635 -0.0013680620030482539 -2.3133612410040874 -18.289669385179028 1.5678666603714722 0.5653583291746572 -0.3388370066710209 0.001911804091649545 0.0044315287772986435 1.8877736590003396 -0.0284134447045565 -0.4091962417854 19.49774288518523 6.296011894725593 -6.7060092787110275 -7.9121512728027135 -8.77524566089041 6.281291337072759 4.640805806150587 -0.9291395097619355 3.602625030895665 12.73087520530688 -12.587272999927345 16.303923540785664 10.999284177992347 22.240616534274277 3.2887140362047744 11.605289766598162 -2.838995670928467 -9.489364500902072 0.000007618184724651312 -1.2466695751885641 7.554003344080824e-7 -7.791137604666548 3.2167274938025288 10.284873423248271 5.150996022443193 13.46636474065233 2.7967134948526753 2.4565466076409015 -7.5631878094153855 -7.455879631520198 -8.433706740296829e-7 -3.136735964829267 4.589834840584469e-8
0.05580456182360649 -0.22359892931309489 0.05229146033525467 -7.632795582427612 -5.092614451635062 -6.396826758137727 0.5594141076841123 2.8992498660538466 -0.16487529367856654 0.26583771091716824 1.7657184931759715 -0.33653631014974156 0 0 0 -4.741901381061705 1.9556090609188252 -4.458788682770623 -20.188333408304356 -3.0986768876301776 -1.924348467943221 0 0 0 0 0 0 -10.475990707864636 6.10354994370709 -8.67685254056568 -32.744699445877146 16.061436157699045 -59.37919643136962 -2.3404405726734945 -0.30743314559354895 0.03651566342240028 -34.9300177442747 5.262210631951553 50.97898877105425 -2.198711818970822 0.684268992649358 9.754641336025212 0.9852110680548006 0.02195874188908559 -2.2165883279544465 -0.9183970012882463 0.06032969137464924 8.046802370312433 26.97626323205821 5.095350074854583 -5.237488102321322 0.2816109499064925 -0.024148209564200846 -5.240260104901221 -0.33802342194234236 0.04731404643920474 13.666957015490826 9.338190767205251 0.15813891696246432 10.281968691770293 0.8147134038343498 0.03428945266069408 -0.009982175579819822 -0.2403458892820234 0.014171500416513655 5.948055513614367 18.289685054344186 1.5678531016387256 -0.5653308056722434 0.3388504000105696 0.0019119637573266428 -0.004476931358964312 0.0887460790576537 0.054293518678265394 -1.1337947477281134 -19.497636547317857 6.296103802849295 6.705992166510213 7.912131592575641 -8.77526466638206 -6.281294720592569 -3.7555771930068707 -0.783243733994234 -2.854493441971682 -2.428739799590936 11.910061592439018 -0.781085353486604 -42.08797198982544 -7.49092411625415 65.67968735142266 7.4184267127889685 -0.9676165688749384 -0.1586671146239155 21.718824913860576 25.81535906412681 -31.847226833744326 2.1986892090138537 0.6842422035908534 -9.754652012564714 -0.9852003974614039 0.021970703058645298 2.2165749722781283 1.6071358979049242 0.036868336487585994 -4.378528878661281 -26.976270926053108 5.0953736467800175 5.237505060155021 -0.28157549204507454 -0.024153977539405416 5.240278271122241 3.1959374575367407 0.5119376008001394 -12.059345496603173 -9.338191609667687 0.15811043549876977 -10.281947080540665 -0.8147584358485728 0.034302919608354986 0.010147269080510325 0.08287657267016746 -0.0013687540266093777 -2.3133633736986208 -18.289663447370202 1.5678591870541994 0.5653626724800607 -0.3388231064122071 0.0019144360740316808 0.004347817689172706 1.8877481605172928 -0.02842174565325532 -0.4092000569895651 19.497738499624326 6.296008888385373 -6.70600842563328 -7.9121504171407055 -8.775248252548305 6.2812810326745 4.640801976261415 -0.9291462341135591 3.602622474300099 12.621613690080375 -12.84737332068378 16.325217651182463 10.968318440241964 21.805940703858038 3.4585130538405773 10.280204279109448 -2.40604486695034 -9.502929773623586 0.000004650145202267664 -1.119934082189568 0.0000016475196235159674 -7.61835420505643 3.4227582973717046 10.72830136001785 5.261585736478805 12.899116524929736 2.8035044410337795 0.7788668163503069 -7.513257049856267 -7.626222208938062 2.798030447990927e-7 -3.132093455657994 -1.601746938434318e-8
0.010878665372729301 -0.22429511156407145 0.048202335834503174 -6.165562145485057 -5.000428614556711 -6.368097784633472 0.7805447555784999 2.886698765647893 -0.13011257682665703 0.44489228430439903 1.761662320744763 -0.31799651959860303 0 0 0 -4.750838733399602 1.9304078217315046 -4.2225222357242185 -20.66563770261045 -3.0958867350208648 -2.168171163663813 0 0 0 0 0 0 -10.354397466375891 6.11603988098904 -8.624125987372558 -33.30651755308401 16.661526980978273 -59.76650646117048 -2.1282702347621956 -0.2796227580333778 0.0326721047546059 -35.80375105364218 5.239079612458366 50.08292834325019 -2.1987237638534722 0.6842649369353119 9.754662689104821 0.9852221174868508 0.021963174175254407 -2.216551511068936 -0.9184094861310016 0.06032321469753965 8.046807442519874 26.976278565023637 5.095355646400517 -5.237429745751064 0.28162026126359363 -0.024163063892944425 -5.240244376102274 -0.3380151778310726 0.047312515649215514 13.666997597815097 9.338167466578572 0.15812559003869792 10.281980452698402 0.814754807676848 0.03430532084716545 -0.010056658170099507 -0.24034708989067785 0.014159886093021688 5.948064005386038 18.28968018866633 1.567843386326339 -0.5653062516827319 0.3388065114774481 0.0019213748608788472 -0.004345953394385567 0.08876358140461345 0.054283119977390465 -1.1337838642406042 -19.49767237553314 6.296077604737611 6.705977689508895 7.912115334995335 -8.775262938610052 -6.281273733725487 -3.755609793470464 -0.7832642264765192 -2.854506830365389 -2.2931081426289435 11.84189285712032 -0.30689006933691537 -46.39708140918132 -8.786879795553089 65.85394149398614 6.891369202416916 -0.8996253851337527 -0.14331354700544802 20.24998026833398 24.668153358967572 -33.07860937067812 2.1986811035574156 0.6842516491353688 -9.754644439154022 -0.9852053059343747 0.02197087814895672 2.216592806912667 1.6071482727553743 0.03685884825896753 -4.37854462737852 -26.976264787364165 5.095379218326156 5.237503352990669 -0.2815919269906495 -0.024154169304987535 5.240286773175411 3.19595621209246 0.5119392550526117 -12.059351341362664 -9.338195533658393 0.15812476294232833 -10.281933869975001 -0.8147420023648261 0.03430329646944606 0.010005811939867802 0.08287982767887542 -0.001379957721311337 -2.3133603879262714 -18.28969099215364 1.5678699699834158 0.5653796270925465 -0.3388195579776091 0.0019180885827259277 0.004335095294647946 1.8877526403967553 -0.028426241305664568 -0.4091815679231928 19.497736880229706 6.296006740999512 -6.706012691021981 -7.912141004858388 -8.775243069232534 6.2812862361537185 4.640794040136081 -0.9291338527677222 3.602629717987498 12.521755537220926 -13.105417565711091 16.299573123685384 10.931847596776693 21.35766067017729 3.607634860462487 8.881286906735598 -1.9788550098394704 -9.481161269105023 -0.0000014702548232662752 -1.002455362520732 -0.000002542356841231342 -7.458595897188987 3.62618739850306 11.125916543565225 5.149926584688871 12.326216074736456 2.7643029199981757 -0.739502814461604 -7.457207291375147 -7.7551893905829665 0.000004219228945551048 -3.1349685682656254 -0.0000021465866267853146
-0.02997610904276371 -0.2246842106851652 0.04460487887263298 -4.597444724425324 -4.933189904134306 -6.32285752553219 0.9946549661642193 2.8966079000150122 -0.08806416765394146 0.6186337731651638 1.7761126022774543 -0.2951356094392578 0 0 0 -4.767701481432478 1.8900723483011808 -3.9514192496901828 -21.120967651105953 -3.110309336138101 -2.3235602041766583 0 0 0 0 0 0 -10.219051274988683 6.129567827124448 -8.563258904760552 -33.71328798628795 17.200577972089878 -60.060592541223315 -1.8463349875756285 -0.2426634194922303 0.027761868391392972 -36.6546605950295 5.150373169277196 49.18184647603079 -2.198708192845694 0.6842493544550612 9.754662951935101 0.9852178492492742 0.021971805293843863 -2.2165662276456977 -0.9184245319670268 0.06032701666041542 8.046800679576592 26.97625862116403 5.095344074728247 -5.2374489513517 0.2815936345174598 -0.024153010373860837 -5.240256704079894 -0.33800661356012707 0.04732323784924969 13.667004211926516 9.338168309041066 0.1581238558043746 10.281960521602311 0.8147603032898991 0.0342979737234164 -0.010034162398458377 -0.2403528794924085 0.014178057131513256 5.948068251271774 18.289654265776083 1.5678498987884832 -0.5653269624391162 0.3388524810473886 0.0019122916347549391 -0.0043702646821982575 0.08876124019890447 0.054285484531245445 -1.1337783157959602 -19.497663131787654 6.296082328987161 6.705981954898391 7.912141004858388 -8.775260346952054 -6.281273733725487 -3.7556051073616126 -0.783246509017871 -2.854494507964139 -2.146909994190034 11.761755808732214 0.20259664045831452 -50.93728702071407 -10.457694225341983 66.13220660924682 6.320096896110858 -0.8258180999507736 -0.12729555587793656 19.051625684440634 23.503747253437652 -34.24564660432934 2.1986892090138537 0.6842517558646855 -9.754659585975059 -0.9851893000441987 0.021960679555198502 2.2165810763077465 1.6071334442707652 0.03686827979166806 -4.378537391481492 -26.976261704263976 5.095367218072995 5.237507194110448 -0.28159064634554143 -0.02414552317852456 5.240271044376865 3.195963031930733 0.5119410693940334 -12.05934800150013 -9.338204800745258 0.15812138785553012 -10.281938910373368 -0.814744563427237 0.03429721666618037 0.010122322044340262 0.0828887722827197 -0.001366406774404012 -2.313369985051634 -18.289663447370202 1.5678580126757733 0.5653513029155026 -0.3388514938888976 0.0019214957565612456 0.0044141544003246215 1.8877609601728385 -0.02841864071824577 -0.40919794928936243 19.49773964639593 6.296012753679944 -6.7060092787110275 -7.912141004858388 -8.775249116434274 6.281275931755883 4.640791486876705 -0.9291442061344968 3.602625030895665 12.441867953735128 -13.35066651045448 16.21871792958459 10.892436794986057 20.88924749489809 3.743813344972171 7.379810228876821 -1.5536040962958357 -9.42245835987892 -0.000002961693358055682 -0.8877425054278704 -8.15520975880012e-7 -7.343326707411619 3.850902130903068 11.449920253717863 4.531441034030837 11.751584006393875 2.64902617691576 -1.8018922753378008 -7.397889680285076 -7.86089289478156 0.000003939740609588629 -3.1390305066251827 -0.0000017026669530235332
